<svg width="33" height="33" viewBox="0 0 33 33" fill="none" xmlns="http://www.w3.org/2000/svg">
<path d="M12.1938 29.1548C12.0731 29.182 11.9633 29.248 11.8792 29.344C11.7951 29.4399 11.7409 29.561 11.724 29.6909C11.6426 30.3305 11.3351 30.9133 10.8641 31.321C10.393 31.7287 9.79358 31.9308 9.18743 31.8862C8.58128 31.8416 8.0138 31.5536 7.60014 31.0808C7.18649 30.608 6.95762 29.9858 6.96 29.3403C6.96311 29.1967 6.97715 29.0537 7.002 28.9126C7.02243 28.7838 7.00512 28.6514 6.95243 28.5334C6.89974 28.4154 6.81421 28.3175 6.7074 28.2528C6.14074 27.9096 5.61668 27.4925 5.1474 27.0111C5.08537 26.9474 5.01112 26.8986 4.92974 26.8682C4.84835 26.8377 4.76173 26.8262 4.6758 26.8346L0 27.2865L2.9022 23.7628C2.96694 23.6842 3.01251 23.5899 3.0349 23.4882C3.05729 23.3865 3.05581 23.2806 3.0306 23.1796C2.74192 22.0755 2.68437 20.9175 2.862 19.7873C2.87952 19.6663 2.86389 19.5425 2.81697 19.4307C2.77005 19.3189 2.69382 19.2238 2.5974 19.1568C2.17245 18.8679 1.8094 18.4874 1.53181 18.0398C1.25422 17.5922 1.06828 17.0877 0.986048 16.5589C0.903817 16.03 0.927132 15.4888 1.05448 14.9701C1.18183 14.4515 1.41037 13.9671 1.72528 13.5483C2.04019 13.1296 2.43443 12.7858 2.88245 12.5393C3.33046 12.2929 3.82224 12.1492 4.32588 12.1176C4.82953 12.086 5.33379 12.1673 5.80598 12.3561C6.27817 12.5449 6.70772 12.837 7.0668 13.2135C7.14952 13.2988 7.2536 13.3569 7.3666 13.381C7.4796 13.4051 7.59673 13.3941 7.704 13.3493C8.24038 13.1249 8.79832 12.9638 9.3678 12.8687C9.40784 13.8696 9.80998 14.8155 10.4904 15.5091C11.1708 16.2028 12.077 16.5906 13.02 16.5919H16.434C15.4459 18.1226 14.8721 19.912 14.7748 21.7652C14.6776 23.6184 15.0608 25.4644 15.8826 27.1023C14.8526 28.1316 13.5768 28.8415 12.1938 29.1548Z" fill="#FFFA9F"/>
<path d="M28.2 8.28647C28.0409 8.28647 27.8882 8.35362 27.7757 8.47316C27.6632 8.5927 27.6 8.75483 27.6 8.92389V12.6847C27.5992 13.3775 27.3398 14.0418 26.8786 14.5317C26.4174 15.0216 25.7922 15.2972 25.14 15.2981H13.26C12.6078 15.2972 11.9825 15.0216 11.5214 14.5317C11.0602 14.0418 10.8008 13.3775 10.8 12.6847V2.61342C10.8008 1.92056 11.0602 1.25631 11.5214 0.766386C11.9825 0.276456 12.6078 0.000843414 13.26 0H25.14C25.7922 0.000843414 26.4174 0.276456 26.8786 0.766386C27.3398 1.25631 27.5992 1.92056 27.6 2.61342V3.82452C27.6 3.99358 27.6632 4.15571 27.7757 4.27525C27.8882 4.39479 28.0409 4.46194 28.2 4.46194H32.9574C32.8118 5.52336 32.3117 6.49374 31.5484 7.19589C30.7852 7.89805 29.8096 8.28513 28.8 8.28647H28.2Z" fill="#B3B7FF"/>
<path d="M33 22.6029C33.0008 24.3365 32.524 26.0325 31.6284 27.4817C31.5831 27.5554 31.5526 27.6382 31.5388 27.725C31.5251 27.8117 31.5284 27.9006 31.5486 27.9859L32.7282 32.9999L28.0572 30.9321C27.9147 30.869 27.7548 30.8668 27.6108 30.9257C25.8734 31.6384 23.9621 31.7165 22.1783 31.1479C20.3944 30.5793 18.8394 29.3962 17.7582 27.7852C16.6771 26.1741 16.1313 24.2266 16.2069 22.2497C16.2825 20.2727 16.9752 18.3787 18.1758 16.8661H25.14C25.829 16.8653 26.5037 16.6578 27.0867 16.2677C27.6696 15.8775 28.137 15.3205 28.4352 14.6607C29.8111 15.4091 30.9655 16.5469 31.7711 17.9484C32.5766 19.35 33.0019 20.9608 33 22.6029Z" fill="#FFA0A0"/>
</svg>
