<svg width="34" height="26" viewBox="0 0 34 26" fill="none" xmlns="http://www.w3.org/2000/svg">
<path d="M17.9883 21.7949C16.9642 21.7949 16.0833 21.6123 15.3457 21.2471C14.6152 20.8818 14.0531 20.3555 13.6592 19.668C13.2725 18.9805 13.0791 18.1533 13.0791 17.1865V10.6123C13.0791 9.6097 13.2725 8.75033 13.6592 8.03418C14.0531 7.31803 14.6152 6.77018 15.3457 6.39062C16.0833 6.00391 16.9642 5.81055 17.9883 5.81055H28.3867C29.418 5.81055 30.2988 6.00391 31.0293 6.39062C31.7598 6.77018 32.3184 7.31803 32.7051 8.03418C33.099 8.75033 33.2959 9.6097 33.2959 10.6123V17.1865C33.2959 18.1533 33.1097 18.9805 32.7373 19.668C32.3649 20.3555 31.8278 20.8818 31.126 21.2471C30.4242 21.6123 29.5791 21.7949 28.5908 21.7949H28.4189V24.5557C28.4189 24.9854 28.3079 25.3255 28.0859 25.5762C27.8711 25.834 27.5667 25.9629 27.1729 25.9629C26.9007 25.9629 26.6429 25.8949 26.3994 25.7588C26.1559 25.6227 25.8659 25.4115 25.5293 25.125L21.6621 21.7949H17.9883ZM0.704102 14.3291V5.81055C0.704102 4.72917 0.915365 3.7946 1.33789 3.00684C1.76042 2.21908 2.36198 1.61393 3.14258 1.19141C3.93034 0.761719 4.87207 0.546875 5.96777 0.546875H19.4385C20.7419 0.546875 21.8161 0.847656 22.6611 1.44922C23.5133 2.04362 24.0898 2.88151 24.3906 3.96289V4.07031H17.9883C16.6419 4.07031 15.4674 4.33887 14.4648 4.87598C13.4694 5.41309 12.6995 6.17578 12.1553 7.16406C11.611 8.14518 11.3389 9.2946 11.3389 10.6123V17.1865C11.3389 18.4255 11.6003 19.5176 12.123 20.4629L9.00781 23.1807C8.67122 23.4743 8.3776 23.6855 8.12695 23.8145C7.88346 23.9505 7.62565 24.0186 7.35352 24.0186C6.95964 24.0186 6.65169 23.8896 6.42969 23.6318C6.20768 23.3812 6.09668 23.0374 6.09668 22.6006V19.5928H5.78516C4.78971 19.5928 3.90885 19.3815 3.14258 18.959C2.38346 18.5365 1.78548 17.9313 1.34863 17.1436C0.918945 16.3558 0.704102 15.4176 0.704102 14.3291Z" fill="#8980C8"/>
</svg>
