<svg width="232" height="218" viewBox="0 0 232 218" fill="none" xmlns="http://www.w3.org/2000/svg">
<g clip-path="url(#clip0_805_5700)">
<path d="M85.7262 192.391C84.8776 192.571 84.1054 193.007 83.5143 193.64C82.9231 194.273 82.5423 195.072 82.4231 195.929C81.8508 200.15 79.6895 203.996 76.3777 206.686C73.066 209.376 68.8517 210.71 64.5903 210.415C60.3289 210.121 56.3394 208.221 53.4314 205.101C50.5231 201.981 48.9141 197.875 48.931 193.615C48.9526 192.668 49.0514 191.724 49.2261 190.793C49.3698 189.943 49.2481 189.07 48.8778 188.291C48.5074 187.512 47.9061 186.866 47.155 186.439C43.1711 184.174 39.4868 181.421 36.1879 178.245C35.7516 177.825 35.2296 177.503 34.6576 177.302C34.0855 177.101 33.4765 177.025 32.8723 177.08L0 180.062L20.4033 156.81C20.8585 156.291 21.1789 155.669 21.3363 154.998C21.4937 154.327 21.4833 153.627 21.306 152.961C19.2765 145.675 18.872 138.034 20.1207 130.575C20.2439 129.777 20.134 128.96 19.8042 128.222C19.4743 127.485 18.9384 126.857 18.2605 126.415C15.273 124.509 12.7207 121.997 10.7691 119.044C8.81756 116.09 7.51033 112.761 6.93221 109.271C6.35409 105.781 6.51802 102.21 7.41332 98.787C8.30863 95.3648 9.91535 92.1682 12.1292 89.4048C14.3431 86.6417 17.1148 84.373 20.2645 82.7466C23.4142 81.1201 26.8715 80.1719 30.4122 79.9637C33.9529 79.7553 37.4983 80.2914 40.8177 81.5374C44.1374 82.7831 47.1572 84.7111 49.6818 87.1955C50.2634 87.758 50.9951 88.1419 51.7895 88.3008C52.5837 88.4597 53.4075 88.3869 54.1615 88.0914C57.9324 86.6108 61.8548 85.5472 65.8584 84.9199C66.1401 91.525 68.9671 97.7666 73.7508 102.344C78.5342 106.921 84.905 109.481 91.5345 109.489H115.536C108.59 119.59 104.555 131.398 103.872 143.627C103.188 155.857 105.882 168.038 111.66 178.847C104.418 185.639 95.4489 190.324 85.7262 192.391Z" fill="#404350"/>
<path d="M198.255 54.6821C197.136 54.6821 196.063 55.1251 195.272 55.9141C194.481 56.7029 194.036 57.7729 194.036 58.8883V83.7056C194.031 88.2776 192.207 92.6611 188.965 95.8939C185.723 99.1271 181.327 100.946 176.742 100.951H93.2219C88.6367 100.946 84.2409 99.1271 80.9989 95.8939C77.7566 92.6611 75.9328 88.2776 75.9271 83.7056V17.2459C75.9328 12.6737 77.7566 8.29036 80.9989 5.05735C84.2409 1.82432 88.6367 0.00556564 93.2219 0H176.742C181.327 0.00556564 185.723 1.82432 188.965 5.05735C192.207 8.29036 194.031 12.6737 194.036 17.2459V25.2379C194.036 26.3534 194.481 27.4233 195.272 28.2122C196.063 29.001 197.136 29.4441 198.255 29.4441H231.7C230.677 36.4483 227.161 42.8519 221.795 47.4852C216.429 52.1188 209.571 54.6732 202.473 54.6821H198.255Z" fill="#404350"/>
<path d="M232 149.156C232.005 160.596 228.653 171.787 222.357 181.351C222.038 181.836 221.824 182.383 221.728 182.956C221.631 183.528 221.654 184.115 221.796 184.678L230.089 217.765L197.251 204.12C196.249 203.704 195.125 203.688 194.112 204.077C181.898 208.78 168.461 209.296 155.92 205.544C143.379 201.791 132.446 193.984 124.846 183.353C117.245 172.722 113.408 159.87 113.939 146.825C114.471 133.779 119.341 121.28 127.781 111.299H176.742C181.586 111.293 186.329 109.924 190.427 107.35C194.526 104.775 197.812 101.099 199.908 96.745C209.581 101.684 217.697 109.192 223.36 118.441C229.023 127.69 232.013 138.319 232 149.156Z" fill="#404350"/>
</g>
<defs>
<clipPath id="clip0_805_5700">
<rect width="232" height="218" fill="white"/>
</clipPath>
</defs>
</svg>
