<svg width="64" height="64" viewBox="0 0 64 64" fill="none" xmlns="http://www.w3.org/2000/svg">
<rect width="64" height="64" rx="32" fill="#2E303A"/>
<path d="M22.707 31.4609V29.1875C22.707 28.8438 22.8281 28.5547 23.0703 28.3203C23.3203 28.0781 23.6172 27.957 23.9609 27.957C24.3125 27.957 24.6133 28.0781 24.8633 28.3203C25.1133 28.5547 25.2383 28.8438 25.2383 29.1875V31.3789C25.2383 32.707 25.5234 33.8672 26.0938 34.8594C26.6719 35.8516 27.4688 36.6211 28.4844 37.168C29.5 37.707 30.6719 37.9766 32 37.9766C33.3203 37.9766 34.4883 37.707 35.5039 37.168C36.5195 36.6211 37.3125 35.8516 37.8828 34.8594C38.4531 33.8672 38.7383 32.707 38.7383 31.3789V29.1875C38.7383 28.8438 38.8633 28.5547 39.1133 28.3203C39.3633 28.0781 39.6641 27.957 40.0156 27.957C40.3672 27.957 40.6641 28.0781 40.9062 28.3203C41.1562 28.5547 41.2812 28.8438 41.2812 29.1875V31.4609C41.2812 33.125 40.9375 34.5938 40.25 35.8672C39.5625 37.1406 38.6094 38.1602 37.3906 38.9258C36.1797 39.6914 34.7852 40.1523 33.207 40.3086V42.4766H37.4727C37.8242 42.4766 38.125 42.5977 38.375 42.8398C38.6328 43.0898 38.7617 43.3906 38.7617 43.7422C38.7617 44.0781 38.6328 44.3672 38.375 44.6094C38.125 44.8594 37.8242 44.9844 37.4727 44.9844H26.5156C26.1641 44.9844 25.8594 44.8594 25.6016 44.6094C25.3516 44.3672 25.2266 44.0781 25.2266 43.7422C25.2266 43.3906 25.3516 43.0898 25.6016 42.8398C25.8594 42.5977 26.1641 42.4766 26.5156 42.4766H30.7812V40.3086C29.1953 40.1523 27.7969 39.6914 26.5859 38.9258C25.375 38.1602 24.4258 37.1406 23.7383 35.8672C23.0508 34.5938 22.707 33.125 22.707 31.4609ZM32 35.6211C31.1953 35.6211 30.4688 35.4336 29.8203 35.0586C29.1797 34.6836 28.668 34.1602 28.2852 33.4883C27.9102 32.8164 27.7227 32.0352 27.7227 31.1445V23.2227C27.7227 22.332 27.9102 21.5508 28.2852 20.8789C28.668 20.207 29.1797 19.6836 29.8203 19.3086C30.4688 18.9336 31.1953 18.7461 32 18.7461C32.7969 18.7461 33.5156 18.9336 34.1562 19.3086C34.8047 19.6836 35.3164 20.207 35.6914 20.8789C36.0664 21.5508 36.2539 22.332 36.2539 23.2227V31.1445C36.2539 32.0352 36.0664 32.8164 35.6914 33.4883C35.3164 34.1602 34.8047 34.6836 34.1562 35.0586C33.5156 35.4336 32.7969 35.6211 32 35.6211Z" fill="#3D64BD"/>
</svg>
