<svg width="48" height="48" viewBox="0 0 48 48" fill="none" xmlns="http://www.w3.org/2000/svg">
<rect width="48" height="48" rx="24" fill="#8980C8"/>
<path d="M13.9453 24.5391C13.9453 24.0469 14.1172 23.6289 14.4609 23.2852C14.8125 22.9336 15.2344 22.7578 15.7266 22.7578H22.2305V16.2656C22.2305 15.7734 22.4023 15.3555 22.7461 15.0117C23.0898 14.6602 23.5078 14.4844 24 14.4844C24.4922 14.4844 24.9102 14.6602 25.2539 15.0117C25.6055 15.3555 25.7812 15.7734 25.7812 16.2656V22.7578H32.2852C32.7695 22.7578 33.1836 22.9336 33.5273 23.2852C33.8789 23.6289 34.0547 24.0469 34.0547 24.5391C34.0547 25.0312 33.8789 25.4531 33.5273 25.8047C33.1836 26.1484 32.7695 26.3203 32.2852 26.3203H25.7812V32.8242C25.7812 33.3086 25.6055 33.7227 25.2539 34.0664C24.9102 34.418 24.4922 34.5938 24 34.5938C23.5078 34.5938 23.0898 34.418 22.7461 34.0664C22.4023 33.7227 22.2305 33.3086 22.2305 32.8242V26.3203H15.7266C15.2344 26.3203 14.8125 26.1484 14.4609 25.8047C14.1172 25.4531 13.9453 25.0312 13.9453 24.5391Z" fill="#2F2F31"/>
</svg>
