<svg width="256" height="256" viewBox="0 0 256 256" fill="none" xmlns="http://www.w3.org/2000/svg">
<path d="M97.5773 211.599C96.7303 211.778 95.9593 212.215 95.3693 212.849C94.7793 213.482 94.399 214.282 94.2802 215.14C93.7088 219.366 91.5512 223.216 88.2451 225.909C84.9391 228.602 80.7323 229.937 76.4783 229.643C72.2243 229.348 68.2417 227.446 65.3386 224.322C62.4355 221.199 60.8293 217.088 60.846 212.824C60.8678 211.876 60.9664 210.931 61.1408 209.999C61.2841 209.148 61.1627 208.274 60.7929 207.494C60.4231 206.715 59.8228 206.068 59.0732 205.64C55.0964 203.373 51.4185 200.617 48.125 197.438C47.6897 197.017 47.1686 196.695 46.5974 196.493C46.0263 196.292 45.4184 196.216 44.8153 196.271L12.0001 199.257L32.368 175.979C32.8224 175.46 33.1422 174.837 33.2993 174.165C33.4564 173.493 33.4461 172.793 33.2691 172.126C31.2431 164.832 30.8393 157.183 32.0859 149.716C32.2088 148.917 32.0991 148.099 31.7698 147.361C31.4405 146.622 30.9056 145.994 30.2289 145.551C27.2465 143.643 24.6986 141.129 22.7505 138.172C20.8023 135.215 19.4973 131.882 18.9202 128.389C18.3431 124.895 18.5068 121.32 19.4005 117.894C20.2943 114.468 21.8982 111.268 24.1082 108.501C26.3183 105.735 29.0852 103.464 32.2294 101.836C35.3736 100.207 38.8249 99.2583 42.3595 99.0497C45.8941 98.8412 49.4331 99.3779 52.747 100.625C56.0608 101.872 59.0755 103.802 61.5955 106.289C62.1761 106.853 62.9065 107.237 63.6996 107.396C64.4926 107.555 65.3147 107.482 66.0675 107.186C69.8318 105.704 73.7475 104.639 77.7442 104.011C78.0252 110.624 80.8475 116.872 85.6227 121.454C90.3979 126.037 96.7575 128.599 103.376 128.607H127.335C120.401 138.719 116.374 150.54 115.691 162.782C115.009 175.025 117.698 187.22 123.466 198.04C116.237 204.84 107.283 209.529 97.5773 211.599Z" fill="#2E303A"/>
<path d="M209.91 73.7411C208.794 73.7411 207.722 74.1848 206.933 74.9745C206.143 75.7642 205.699 76.8352 205.699 77.952V102.796C205.694 107.373 203.873 111.761 200.637 114.998C197.4 118.234 193.012 120.055 188.435 120.061H105.06C100.483 120.055 96.0948 118.234 92.8583 114.998C89.6218 111.761 87.801 107.373 87.7955 102.796V36.2645C87.801 31.6874 89.6218 27.2993 92.8583 24.0628C96.0948 20.8263 100.483 19.0056 105.06 19H188.435C193.012 19.0056 197.4 20.8263 200.637 24.0628C203.873 27.2993 205.694 31.6874 205.699 36.2645V44.2651C205.699 45.3819 206.143 46.453 206.933 47.2427C207.722 48.0324 208.794 48.476 209.91 48.476H243.298C242.276 55.4878 238.767 61.8982 233.41 66.5367C228.053 71.1752 221.207 73.7323 214.121 73.7411H209.91Z" fill="#2E303A"/>
<path d="M243.597 168.317C243.603 179.769 240.256 190.973 233.971 200.547C233.653 201.033 233.439 201.58 233.343 202.154C233.246 202.727 233.27 203.314 233.411 203.878L241.69 237L208.908 223.34C207.908 222.924 206.786 222.909 205.775 223.298C193.582 228.006 180.169 228.522 167.649 224.766C155.13 221.01 144.217 213.194 136.629 202.551C129.041 191.908 125.211 179.043 125.742 165.983C126.272 152.924 131.134 140.411 139.56 130.419H188.435C193.27 130.414 198.006 129.043 202.097 126.466C206.188 123.888 209.468 120.209 211.561 115.85C221.217 120.794 229.319 128.31 234.972 137.569C240.626 146.828 243.611 157.469 243.597 168.317Z" fill="#2E303A"/>
</svg>
