<svg width="64" height="64" viewBox="0 0 64 64" fill="none" xmlns="http://www.w3.org/2000/svg">
<rect width="64" height="64" rx="32" fill="#403F44"/>
<path d="M26.0234 42.7812C25.4375 42.7812 24.9961 42.6328 24.6992 42.3359C24.4102 42.0391 24.2656 41.5977 24.2656 41.0117V24.0547C24.2656 23.4688 24.4141 23.0312 24.7109 22.7422C25.0078 22.4453 25.4453 22.2969 26.0234 22.2969H28.8359C29.4141 22.2969 29.8516 22.4414 30.1484 22.7305C30.4453 23.0195 30.5938 23.4609 30.5938 24.0547V41.0117C30.5938 41.5977 30.4453 42.0391 30.1484 42.3359C29.8516 42.6328 29.4141 42.7812 28.8359 42.7812H26.0234ZM35.1641 42.7812C34.5703 42.7812 34.125 42.6328 33.8281 42.3359C33.5391 42.0391 33.3945 41.5977 33.3945 41.0117V24.0547C33.3945 23.4688 33.543 23.0312 33.8398 22.7422C34.1367 22.4453 34.5781 22.2969 35.1641 22.2969H37.9648C38.5508 22.2969 38.9883 22.4414 39.2773 22.7305C39.5742 23.0195 39.7227 23.4609 39.7227 24.0547V41.0117C39.7227 41.5977 39.5742 42.0391 39.2773 42.3359C38.9883 42.6328 38.5508 42.7812 37.9648 42.7812H35.1641Z" fill="#8980C8"/>
</svg>
