<svg width="148" height="148" viewBox="0 0 148 148" fill="none" xmlns="http://www.w3.org/2000/svg">
<g clip-path="url(#clip0_1337_9202)">
<path d="M58.9998 107.467C60.8883 104.049 58.9998 96.9668 58.9998 96.9668L88.9998 96.4668C88.9998 96.4668 86.0031 104.594 88.9998 108.467C90.3621 110.228 95 112.5 95 112.5C95 112.5 88.9998 121 74.5 121C60.0002 121 52 112.5 52 112.5C52 112.5 57.1112 110.885 58.9998 107.467Z" fill="#F3CCBF"/>
<path d="M89.5 97H58.5C58.5 97 60.5 106 73.5 106C87 106 89.5 97 89.5 97Z" fill="#ECB8A7"/>
<path d="M74.0009 103.967C43.0017 103.967 45.0048 57.4668 45.0048 57.4668V48.4668L67.0048 32.9668L96.0048 43.4668L103.005 57.4668C103.005 57.4668 105 103.967 74.0009 103.967Z" fill="#F3CCBF"/>
<path d="M93.499 17.4674C66.9996 4.46978 49.4996 23.9697 49.4996 23.9697C49.4996 23.9697 42.999 23.9697 37.9996 35.4697C33.0001 46.9697 39.499 62 39.499 62C39.499 62 40.6961 60.919 41.4996 60.9697C43.6074 61.1029 45.499 66.5 45.499 66.5L44.999 58C44.999 58 49.0361 54.299 51.499 51.4699C54.0277 48.5653 57.499 42.9699 57.499 42.9699C57.499 42.9699 61.8616 47.1601 65.4996 48.9697C70.2069 51.3113 78.4996 52.4697 78.4996 52.4697C78.4996 52.4697 76.9258 50.4852 76.4996 48.9697C76.0238 47.278 76.4996 44.4697 76.4996 44.4697C76.4996 44.4697 81.2307 48.061 84.999 49.9699C89.2407 52.1187 93.1532 52.0403 97.499 53.9699C99.8933 55.0331 102.999 57.5 102.999 57.5L102.499 68.5C102.499 68.5 103.525 62.7257 105.499 62C106.415 61.6631 107.999 62 107.999 62C107.999 62 119.998 30.4649 93.499 17.4674Z" fill="#4A4C53"/>
<path d="M82.5 88.5C82.5 91.5 78.9706 95 74 95C69.0294 95 65.5 92.0899 65.5 88.5C65.5 87.5 69.0294 82 74 82C78.9706 82 82.5 87.6271 82.5 88.5Z" fill="#E0816A"/>
<circle cx="87" cy="65.4668" r="3" fill="#191E29"/>
<path d="M42.1211 61.0715C44.0933 61.4614 45.1211 65.5719 45.1211 65.5719L47.6211 79.0715C47.6211 79.0715 46.0808 79.2509 45.1211 79.0715C42.6631 78.6121 41.2373 77.3092 40.1211 75.0715C38.6211 72.0645 37.1211 64.5644 38.6211 62.5715C39.5154 61.3834 40.6623 60.7832 42.1211 61.0715Z" fill="#F3CCBF"/>
<path d="M106 61.4739C104.028 61.8637 103 65.9743 103 65.9743L100.5 79.4739C100.5 79.4739 102.04 79.6533 103 79.4739C105.458 79.0144 106.884 77.7115 108 75.4739C109.5 72.4668 111 64.9668 109.5 62.9739C108.606 61.7857 107.459 61.1855 106 61.4739Z" fill="#F3CCBF"/>
<path d="M74.0011 94.4668C69.9379 94.4668 65.5011 88.4668 65.5011 88.4668C65.5011 88.4668 65.0021 96.9668 74.0011 96.9668C83 96.9668 82.5011 88.4668 82.5011 88.4668C82.5011 88.4668 78.0642 94.4668 74.0011 94.4668Z" fill="#E68E7E"/>
<circle cx="61" cy="65.4668" r="3" fill="#191E29"/>
<path d="M73.7518 119.967C61.5037 119.967 53.0018 111.967 53.0018 111.967C53.0018 111.967 30.9784 118.071 23 125.467C14.6683 133.19 15.0018 148.467 15.0018 148.467H73.7518H132.502C132.502 148.467 133.33 133.191 125 125.467C116.889 117.946 94.0018 111.967 94.0018 111.967C94.0018 111.967 86 119.967 73.7518 119.967Z" fill="#FFDA95"/>
<path d="M74 84.4661C70.3314 84.4661 65.5 88.4661 65.5 88.4661C65.5 88.4661 66.9056 82.4591 70 81.4661C71.4874 80.9887 74 81.4661 74 81.4661C74 81.4661 76.5126 80.9887 78 81.4661C81.0944 82.4591 82.5 88.4661 82.5 88.4661C82.5 88.4661 77.6686 84.4661 74 84.4661Z" fill="#E68E7E"/>
<path d="M73.0432 67.1487C73.3306 66.2031 74.6694 66.2031 74.9568 67.1487L77.9379 76.9593C78.1331 77.6016 77.6525 78.25 76.9811 78.25H71.0189C70.3475 78.25 69.8669 77.6016 70.0621 76.9593L73.0432 67.1487Z" fill="#ECB8A7"/>
<rect x="70" y="85" width="8" height="8" stroke="#191E29" stroke-width="2"/>
</g>
<defs>
<clipPath id="clip0_1337_9202">
<rect width="148" height="148" fill="white"/>
</clipPath>
</defs>
</svg>
